<svg xmlns="http://www.w3.org/2000/svg" width="218.576" height="314.07" viewBox="0 0 218.576 314.07">
  <g id="Group_227" data-name="Group 227" transform="translate(0 0)">
    <path id="Path_31" data-name="Path 31" d="M818.605,3393.955a13.288,13.288,0,0,1-.025,26.063l.057,20.467c1.677,1.347,11.124,6.04,13.847,7.319,12.611-.885,25.884-.641,38.344-1.386,5.406-.322,13.245.337,18.927.544,6.287.233,13.015.229,19.281.656l.831-.047c1.125-.971,4.561-2.526,6.262-3.465,2.286-1.261,4.761-1.934,6.66-3.622l.186-20.457c-14.678-1.368-15.151-24.315.022-26.192l-.082-28.632a50.611,50.611,0,0,0-8.487,4.446l1.179,1.143c-.491,1.723-.032.967-1.179,2.006l-7.362,3.776c-5.567,2.451-33.149,19-35.9,19.3-1.978.215-14.266-7.037-17.15-8.648l-16.684-9.035c-1.985-1.025-9.891-4.654-10.945-6.51.774-1.8-.1-.573,1.422-1.855l-9.135-4.833Z" transform="translate(-766.783 -3223.883)" fill="#00d0be" fill-rule="evenodd"/>
    <path id="Path_32" data-name="Path 32" d="M779.38,3595.808c-4.181-.283-41.239,3.238-42.833,4.317,5.234,1.207.322-3.149,14.287,3.64,4.217,2.049,36.281,16.089,37.979,17.945l-52.982,6.137c1.508,1.146,58.661,25.873,59.614,26.3,17.68,7.842,24.5-7.086,21.08-15.749-2.741-6.95-10.669-9.046-19.034-12.911-1.644-.763-6.295-2.708-7.466-3.908,4.6-.674,9.361-1.168,13.865-1.705,18.429-2.189,10.142-2.171,28.456-.025,4.586.537,9.884,1.075,14.337,1.741a2.742,2.742,0,0,1-.781.785l-6.689,3.572c-25.085,13.7-21.356,7.849-21.356,36.61,0,7.516-.351,15.928.061,23.33.949-.548,13.911-21.141,15.86-24.075,3.622-5.449,2.751-4.124,11.908-8.1l63.186-27.815a10.356,10.356,0,0,0,4.231-6.4c-1.15,1.1-1.87,2.15-2.7,3.063-1.182,1.3-.91,1.279-2.78,2.067-10.844,4.589-5.474,3.575-24.548,1.3l-35.356-4.686,32.935-17.332c3.092-1.734,5.008-3.482,9.347-3.06,9.565.932,18.371.376,22.567,8.541.731,1.419.824,3.54,1.6,4.586a13.235,13.235,0,0,0-6.52-12.081c-3.912-2.285-11.031-2.418-16.168-2.948-11.514-1.182-23.115-2.669-34.708-3.439l-.831.047c-1.634,1.4-36.972,19.6-38.28,19.607-1.157.014-16.9-8.347-19.306-9.594-6.531-3.385-12.224-6.556-18.966-9.751Z" transform="translate(-713.679 -3371.811)" fill="#17e7b3" fill-rule="evenodd"/>
    <path id="Path_33" data-name="Path 33" d="M931.006,3165.017l-56.862-.108c-.881,2.493-2.519,4.586-3.629,7.778a30.484,30.484,0,0,0-1.824,9.77c-.552,36.5,45.026,48.182,62.942,18.948A34.254,34.254,0,0,0,933,3168.847,33.81,33.81,0,0,1,931.006,3165.017Z" transform="translate(-798.938 -3095.483)" fill="#17e7b3" fill-rule="evenodd"/>
    <path id="Path_34" data-name="Path 34" d="M883.735,3040.545l56.862.107c.824-1.86-5.764-7.119-7.591-8.373a42.125,42.125,0,0,0-11.547-5.406c10.1-8.5,10-20.9.287-28.162l-1.508-1.2c-.05-.047-.161-.147-.236-.229,2.97-3.246,8.4-7.5,5.628-16.222-5.99-18.816-34.042-8.24-26.855,9.54,1.533,3.791,2.97,4.346,5.3,6.682a14.611,14.611,0,0,1-2.988,2.321c-6.119,4.679-7.577,14.406-3.987,21.112,1.748,3.26,3.1,3.948,5.539,6-2.5,1.5-5.037,1.258-11.185,5.438-2.185,1.487-8.713,7.147-7.713,8.4Z" transform="translate(-808.53 -2971.118)" fill-rule="evenodd"/>
    <path id="Path_35" data-name="Path 35" d="M841.782,3349.584c-1.526,1.282-.648.053-1.422,1.855,1.053,1.856,8.96,5.485,10.945,6.51l16.684,9.035c2.884,1.612,15.172,8.864,17.15,8.648,2.755-.294,30.337-16.845,35.9-19.3l7.362-3.776c1.146-1.039.688-.283,1.179-2.006l-1.179-1.143-7.7,3.841c-.469-7.584.387-11.181-3.79-15.785-3.543-3.912-9.343-4.331-16.186-3.84-.867,1.44-14.406,14.968-15.985,16.014-1.949-.9-13.807-13.4-16.218-15.971-6.671-.7-12.159.208-15.448,3.866-4.124,4.593-3.386,8.666-3.507,16.057l-7.792-4.009Z" transform="translate(-780.76 -3203.644)" fill="#17e7b3" fill-rule="evenodd"/>
    <path id="Path_36" data-name="Path 36" d="M708.643,3635.628l52.982-6.137c-1.7-1.856-33.762-15.9-37.979-17.945-13.965-6.789-9.053-2.432-14.287-3.64a13.543,13.543,0,0,0-11.1,23.68C699.651,3632.6,706.855,3635.9,708.643,3635.628Z" transform="translate(-686.492 -3379.592)" fill="#006e72" fill-rule="evenodd"/>
    <path id="Path_37" data-name="Path 37" d="M1113.519,3628.946l1.057-5.524c-.774-1.046-.867-3.167-1.6-4.586-4.2-8.165-13-7.609-22.567-8.541-4.339-.423-6.255,1.326-9.347,3.06l-32.935,17.333,35.356,4.686c19.074,2.279,13.7,3.292,24.548-1.3,1.87-.788,1.6-.77,2.78-2.067C1111.649,3631.1,1112.369,3630.042,1113.519,3628.946Z" transform="translate(-914.096 -3381.265)" fill="#006e72" fill-rule="evenodd"/>
    <path id="Path_38" data-name="Path 38" d="M857.39,3593.51v.076c6.742,3.2,12.435,6.366,18.966,9.752,2.407,1.247,18.149,9.608,19.307,9.594,1.308-.011,36.646-18.21,38.28-19.607-6.266-.427-12.994-.423-19.281-.656-5.682-.208-13.521-.866-18.927-.544C883.274,3592.868,870,3592.625,857.39,3593.51Z" transform="translate(-791.689 -3369.588)" fill-rule="evenodd"/>
    <path id="Path_39" data-name="Path 39" d="M951.194,3333.94l-32.2.043c2.411,2.576,14.269,15.075,16.218,15.971C936.788,3348.908,950.327,3335.38,951.194,3333.94Z" transform="translate(-831.221 -3203.957)" fill="#006e72" fill-rule="evenodd"/>
    <path id="Path_40" data-name="Path 40" d="M1089.947,3471.7l.022-26.192C1074.8,3447.387,1075.269,3470.333,1089.947,3471.7Z" transform="translate(-933.754 -3275.556)" fill="#006e72" fill-rule="evenodd"/>
    <path id="Path_41" data-name="Path 41" d="M818.58,3471.9a13.288,13.288,0,0,0,.025-26.063Z" transform="translate(-766.783 -3275.768)" fill="#006e72" fill-rule="evenodd"/>
    <path id="Path_42" data-name="Path 42" d="M1117.25,3232.926c9.458,1.376,13.033,7.154,23.982,1.419,4.159-2.175,14.294-10.583,13.3-16.813L1138,3215.97c-6.6,11.758-16.193,14.022-20.37,16.67a2.756,2.756,0,0,0-.38.286Z" transform="translate(-958.453 -3128.25)" fill="#82ecd3" fill-rule="evenodd"/>
    <path id="Path_43" data-name="Path 43" d="M707.368,3076.3c-4.969,1.526-13.915,7.215-18.092,7.337a45.1,45.1,0,0,0-4.353-17.762c-3.045-6.3-5.531-8.419-10.923-11.83,2.78-2.583,7.384-4.127,11.332-6.112,12.41-6.23,21.646,16.888,22.036,28.367Z" transform="translate(-674 -3019.742)" fill="#17e7b3" fill-rule="evenodd"/>
    <path id="Path_44" data-name="Path 44" d="M1175.61,3001.708l20.37,5.317c2.074-15.287,14.1-14.99,18.5-29.828-28.718,0-13.481-2.2-29.642,10.68C1181.356,2990.648,1176.91,2995.456,1175.61,3001.708Z" transform="translate(-995.905 -2974.927)" fill="#00d0be" fill-rule="evenodd"/>
  </g>
</svg>
