<?xml version="1.0" encoding="UTF-8"?>
<!DOCTYPE svg PUBLIC "-//W3C//DTD SVG 1.1//EN" "http://www.w3.org/Graphics/SVG/1.1/DTD/svg11.dtd">
<!-- Creator: CorelDRAW 2019 (64-Bit) -->
<svg xmlns="http://www.w3.org/2000/svg" xml:space="preserve" width="100%" height="100%" version="1.1" style="shape-rendering:geometricPrecision; text-rendering:geometricPrecision; image-rendering:optimizeQuality; fill-rule:evenodd; clip-rule:evenodd"
viewBox="0 0 14300 14300"
 xmlns:xlink="http://www.w3.org/1999/xlink"
 xmlns:xodm="http://www.corel.com/coreldraw/odm/2003">
 <defs>
  <style type="text/css">
   <![CDATA[
    .fil2 {fill:black}
    .fil3 {fill:#006E72}
    .fil0 {fill:#00D0BE}
    .fil1 {fill:#17E7B3}
    .fil4 {fill:#82ECD3}
   ]]>
  </style>
 </defs>
 <g id="Layer_x0020_1">
  <metadata id="CorelCorpID_0Corel-Layer"/>
  <path class="fil0" d="M5506.47 8448.27c134.12,19.97 254.22,141.45 252.22,312.94 -1.86,159.72 -114.7,281.23 -252.85,302.9l1.42 483.64c39.61,31.83 262.85,142.67 327.15,172.88 297.96,-20.84 611.61,-15.15 905.99,-32.7 127.78,-7.62 312.98,7.92 447.26,12.88 148.5,5.47 307.48,5.42 455.56,15.46l19.62 -1.07c26.55,-22.93 107.76,-59.75 147.96,-81.89 54.03,-29.76 112.53,-45.74 157.35,-85.56l4.4 -483.33c-346.78,-32.35 -357.95,-574.58 0.51,-618.92l-1.9 -676.52c-47.63,15.09 -181.84,89.06 -200.56,105.08l27.84 26.96c-11.56,40.76 -0.72,22.83 -27.79,47.44l-173.96 89.22c-131.55,57.87 -783.31,448.92 -848.37,455.92 -46.73,5.03 -337.11,-166.26 -405.26,-204.34l-394.18 -213.5c-46.96,-24.18 -233.78,-109.99 -258.65,-153.82 18.31,-42.6 -2.46,-13.55 33.61,-43.89l-215.87 -114.15 -1.5 684.37z"/>
  <path class="fil1" d="M5834.41 9722.49c-98.82,-6.76 -974.45,76.47 -1012.06,101.93 123.62,28.54 7.61,-74.38 337.53,86 99.69,48.47 857.28,380.2 897.42,424.02l-1251.88 145.06c35.65,27.03 1386.02,611.33 1408.52,621.31 417.77,185.27 578.95,-167.46 498.16,-372.11 -64.83,-164.23 -252.14,-213.79 -449.76,-305.12 -38.88,-17.98 -148.78,-63.97 -176.47,-92.29 108.6,-15.93 221.22,-27.64 327.64,-40.29 435.43,-51.79 239.62,-51.35 672.35,-0.64 108.33,12.69 233.6,25.41 338.78,41.16 -10.59,12.69 -3.79,6.75 -18.48,18.54l-157.99 84.38c-592.72,323.72 -504.63,185.49 -504.63,865 0,177.64 -8.29,376.38 1.46,551.32 22.4,-12.97 328.68,-499.58 374.76,-568.92 85.55,-128.74 65.01,-97.38 281.36,-191.34l1492.96 -657.24c40.75,-28.06 89.3,-84.83 99.98,-151.21 -27.18,25.93 -44.21,50.79 -63.89,72.37 -27.96,30.71 -21.49,30.21 -65.72,48.91 -256.24,108.43 -129.3,84.42 -580,30.63l-835.4 -110.73 778.2 -409.57c73,-40.94 118.27,-82.29 220.8,-72.28 226.07,22.05 434.09,8.93 533.24,201.79 17.27,33.58 19.47,83.62 37.78,108.41 3.87,-134.84 -66.13,-234.05 -154.12,-285.45 -92.42,-54 -260.65,-57.2 -382.05,-69.67 -271.99,-27.96 -546.14,-63.07 -820.06,-81.26l-19.62 1.07c-38.59,32.99 -873.63,463.01 -904.49,463.32 -27.38,0.28 -399.33,-197.29 -456.16,-226.75 -154.32,-79.99 -288.89,-154.87 -448.16,-230.35z"/>
  <path class="fil1" d="M7402.58 6072.79l-1343.56 -2.55c-20.86,58.88 -59.56,108.36 -85.77,183.73 -25.02,72.03 -41.78,145.45 -43.07,230.84 -13.09,862.44 1063.89,1138.5 1487.22,447.72 138.18,-225.5 153.06,-522.56 32.23,-769.28 -16.05,-32.77 -36.35,-58.45 -47.05,-90.46z"/>
  <path class="fil2" d="M6059.02 6070.24l1343.56 2.55c19.45,-43.98 -136.25,-168.22 -179.38,-197.9 -77.06,-53.05 -166.68,-94.69 -272.81,-127.73 238.52,-200.94 236.3,-493.89 6.76,-665.42l-35.69 -28.43c-1.2,-1.08 -3.8,-3.48 -5.54,-5.38 70.19,-76.76 198.56,-177.17 132.94,-383.36 -141.5,-444.57 -804.31,-194.64 -634.48,225.48 36.2,89.56 70.12,102.69 125.06,157.88 -19.35,24.48 -45.08,35.36 -70.55,54.83 -144.64,110.57 -179.1,340.38 -94.23,498.8 41.3,77.08 73.17,93.32 130.84,141.7 -59.1,35.44 -119,29.75 -264.23,128.53 -51.68,35.17 -205.94,168.9 -182.25,198.45z"/>
  <path class="fil1" d="M5723.84 7878.05c-36.07,30.34 -15.3,1.29 -33.61,43.89 24.87,43.83 211.69,129.64 258.65,153.82l394.18 213.5c68.15,38.08 358.53,209.37 405.26,204.34 65.06,-7 716.82,-398.05 848.37,-455.92l173.96 -89.22c27.07,-24.61 16.23,-6.68 27.79,-47.44l-27.84 -26.96 -181.84 90.69c-11.07,-179.17 9.16,-264.19 -89.5,-372.98 -83.77,-92.37 -220.78,-102.33 -382.5,-90.72 -20.49,34.07 -340.37,353.66 -377.67,378.41 -46.09,-21.14 -326.25,-316.55 -383.27,-377.36 -157.61,-16.49 -287.27,4.85 -364.96,91.32 -97.49,108.54 -80,204.78 -82.86,379.4l-184.16 -94.77z"/>
  <path class="fil3" d="M4805.42 10479.5l1251.88 -145.06c-40.14,-43.82 -797.73,-375.55 -897.42,-424.02 -329.92,-160.38 -213.91,-57.46 -337.53,-86 -203.25,-39.84 -378.41,121.91 -375.54,321.36 1.54,106.89 60.42,199.62 113.33,238.19 32.75,23.86 203.06,101.86 245.28,95.53z"/>
  <path class="fil3" d="M8994.06 10282.05l25.01 -130.47c-18.31,-24.79 -20.51,-74.83 -37.78,-108.41 -99.15,-192.86 -307.17,-179.74 -533.24,-201.79 -102.53,-10.01 -147.8,31.34 -220.8,72.28l-778.2 409.57 835.4 110.73c450.7,53.79 323.76,77.8 580,-30.63 44.23,-18.7 37.76,-18.2 65.72,-48.91 19.68,-21.58 36.71,-46.44 63.89,-72.37z"/>
  <path class="fil2" d="M5834.41 9720.63l0 1.86c159.27,75.48 293.84,150.36 448.16,230.35 56.83,29.46 428.78,227.03 456.16,226.75 30.86,-0.31 865.9,-430.33 904.49,-463.32 -148.08,-10.04 -307.06,-9.99 -455.56,-15.46 -134.28,-4.96 -319.48,-20.5 -447.26,-12.88 -294.38,17.55 -608.03,11.86 -905.99,32.7z"/>
  <path class="fil3" d="M7116.76 7501.05l-760.94 1.05c57.02,60.81 337.18,356.22 383.27,377.36 37.3,-24.75 357.18,-344.34 377.67,-378.41z"/>
  <path class="fil3" d="M7972.55 9064.42l0.51 -618.92c-358.46,44.34 -347.29,586.57 -0.51,618.92z"/>
  <path class="fil3" d="M5505.84 9064.11c138.15,-21.67 250.99,-143.18 252.85,-302.9 2,-171.49 -118.1,-292.97 -252.22,-312.94l-0.63 615.84z"/>
  <path class="fil4" d="M8034.11 6903.05c223.46,32.55 307.97,169.09 566.69,33.6 98.21,-51.42 337.76,-250.08 314.29,-397.34l-390.64 -36.87c-155.96,277.79 -382.66,331.3 -481.33,393.86 -1.91,1.21 -6.27,4.19 -9.01,6.75z"/>
  <path class="fil1" d="M5070.44 5766.19c-117.37,36 -328.82,170.41 -427.49,173.37 -6.86,-157.13 -43.92,-297.85 -102.82,-419.72 -71.95,-148.86 -130.73,-198.95 -258.16,-279.56 65.7,-61.04 174.52,-97.53 267.75,-144.36 293.27,-147.26 511.52,399 520.72,670.27z"/>
  <path class="fil0" d="M8528.11 5062.53l481.32 125.61c49.01,-361.18 333.2,-354.19 437.14,-704.81 -678.49,0 -318.49,-51.89 -700.41,252.4 -82.21,65.47 -187.25,179.07 -218.05,326.8z"/>
 </g>
</svg>
