<svg xmlns="http://www.w3.org/2000/svg" width="42.521" height="38.412" viewBox="0 0 42.521 38.412">
  <g id="Group_1" data-name="Group 1" transform="translate(-332.092 -65.509)">
    <path id="Path_84" data-name="Path 84" d="M443.938,827.679l5.27-.049a5.707,5.707,0,0,1,5,8.557L438.7,863.175a5.71,5.71,0,0,1-9.9.009l-3.848-6.66a1.4,1.4,0,0,1,0-1.426l14.086-24.549a5.583,5.583,0,0,1,4.9-2.87Z" transform="translate(-80.382 -762.12)" fill-rule="evenodd"/>
    <path id="Path_85" data-name="Path 85" d="M398.223,837.071l6.862,11.884a1.541,1.541,0,0,0,2.673,0l6.826-11.893a6.172,6.172,0,0,0-5.35-9.247h-5.664a6.173,6.173,0,0,0-5.346,9.261Z" transform="translate(-65.28 -762.22)" fill-rule="evenodd"/>
  </g>
</svg>
